PathFileType	4	(X/Y/Z)	C:\Users\WrightLab\Desktop\Jo\P1.2Trial27.trc
DataRate	CameraRate	NumFrames	NumMarkers	Units	OrigDataRate	OrigDataStartFrame	OrigNumFrames
100.00	100.00	       20	19	mm	100.00	474	       946
Frame#	Time	Headset_Front			Headset_Back			Headset_Left			Headset_Right			Left_Shoulder			Right_Shoulder			Sternum			C7			Left Elbow			Right Elbow			Left Wrist			Right Wrist			Left ASIS			Right ASIS			S2			Left Knee			Right Knee			Left Ankle			Right Ankle			
		X1	Y1	Z1	X2	Y2	Z2	X3	Y3	Z3	X4	Y4	Z4	X5	Y5	Z5	X6	Y6	Z6	X7	Y7	Z7	X8	Y8	Z8	X9	Y9	Z9	X10	Y10	Z10	X11	Y11	Z11	X12	Y12	Z12	X13	Y13	Z13	X14	Y14	Z14	X15	Y15	Z15	X16	Y16	Z16	X17	Y17	Z17	X18	Y18	Z18	X19	Y19	Z19	

474	4.730	-387.22040	1256.91113	0.50538	-530.23279	1495.88489	129.51555	-558.66437	1380.44568	4.89835	-362.59375	1344.57678	120.72537	-705.61578	1205.06628	30.45043	-396.29865	1236.32019	307.45938	-482.09570	1137.18872	101.60880	-625.61188	1306.60608	249.06277	-716.09729	919.88947	-29.64327	-392.97006	1004.47137	440.98920	-529.69360	821.37531	-145.46400	-317.12717	742.99518	440.25262				-402.90131	827.31335	238.41733	-693.48694	915.13855	351.85846	-697.19324	415.80655	130.34106	-342.91357	457.24850	217.74223				-264.75119	141.99814	190.04828	
475	4.740	-380.85193	1255.03210	-3.40720	-522.51062	1494.05701	126.03582	-551.88275	1378.28186	1.80368	-355.02832	1343.11755	115.24909	-697.99207	1202.97400	28.45273	-385.17950	1237.03491	308.41486	-474.59241	1135.03821	98.22561	-617.43866	1305.24487	246.73103	-709.59167	918.40631	-32.07088	-383.84036	1002.89093	437.96838	-523.56354	819.77856	-148.64339	-309.05450	741.57190	436.82336	-731.73541	910.96466	-16.20921	-395.88470	825.26154	233.62798	-684.90112	913.51495	349.69476	-695.42224	415.22147	127.96999	-337.31995	453.61075	212.02620				-263.08920	137.57961	185.41888	
476	4.750	-374.13052	1253.01404	-8.00707	-514.90167	1492.36768	122.60009	-544.65875	1376.58484	-0.31539	-347.85458	1340.86951	110.80567	-690.71008	1201.33997	25.86156	-378.69333	1234.21899	305.55951	-467.24500	1133.07092	94.64571	-608.56525	1303.91687	244.04994	-703.11285	917.32141	-35.67462	-374.18213	1001.24475	434.08255	-517.35156	818.57275	-152.11215	-300.04688	739.99915	434.24869	-727.26465	910.81183	-19.04869	-387.60858	822.83795	227.37465	-676.09662	911.60864	346.96393	-692.94519	414.25302	125.65555	-331.40314	449.78207	206.83086				-257.49780	137.00481	181.12592	
477	4.760	-367.18951	1251.30786	-12.25977	-506.68579	1491.06897	118.41043	-537.53583	1375.17859	-3.96354	-340.03189	1339.31140	106.41742	-683.51514	1199.90503	23.87841	-369.05029	1232.54761	302.58859	-459.82608	1131.27844	90.90369	-599.71631	1302.52966	241.50569	-696.64587	915.68372	-37.32026	-364.38046	1000.16046	431.34662	-511.17230	817.88464	-156.52740	-291.38702	737.53009	429.51080	-720.91754	909.42474	-21.08668	-382.25156	820.36633	223.15781	-666.96796	910.36615	344.87198	-690.77203	413.25482	123.23797	-326.06210	446.03476	201.88480	-920.65515	276.29465	613.34094	-252.14978	136.43954	175.09688	
478	4.770	-360.21454	1249.73999	-17.05505	-497.98334	1489.98242	114.00879	-530.40076	1373.56445	-7.45043	-331.75833	1338.10852	101.29982	-676.15472	1198.91602	22.58921	-358.70901	1228.82092	290.83142	-451.64557	1129.83264	87.23318	-589.79694	1301.00647	238.69350	-690.30615	914.48035	-40.41199	-353.98703	998.65723	427.61987	-505.08734	817.22668	-160.25728	-282.30627	736.11914	426.49719	-714.10107	908.33612	-23.19853	-374.81372	818.45685	217.35072	-658.21576	909.12219	342.61444	-688.34253	412.93417	120.40063	-320.46616	443.53812	195.96144	-917.04095	275.83868	610.83661	-247.27876	135.13055	169.93022	
479	4.780	-352.20343	1248.18555	-23.32308	-489.67130	1488.95959	110.08083	-523.35437	1372.02417	-12.15154	-323.76859	1336.73950	96.09422	-669.24634	1197.77515	19.91640	-348.02606	1229.29346	294.15256	-444.65497	1128.24609	83.41594	-580.30548	1300.77063	235.79048	-683.63922	913.96350	-42.56397	-344.14337	997.30585	424.22827	-499.18881	816.89697	-164.96494	-272.68872	734.28284	423.64575	-707.81683	907.49359	-26.00331	-367.86746	816.07501	213.18616	-648.65662	908.41278	339.87112	-685.24396	411.69968	118.19552	-314.18054	441.90054	190.58420	-915.01672	274.16684	606.23163	-242.38733	132.12334	166.21626	
480	4.790	-345.50278	1246.94263	-27.94134	-481.46039	1488.23413	106.11178	-516.29578	1371.25610	-16.09268	-315.37396	1335.47473	90.55602	-662.21936	1197.72449	18.43877	-338.41159	1227.92114	290.54337	-436.86221	1126.98718	79.97903	-571.15851	1299.94116	233.15933	-677.12708	913.80634	-45.40957	-334.04819	995.71063	420.80490	-493.48239	816.04346	-167.89244	-262.99191	733.10980	422.01212	-700.22510	905.95435	-26.92524	-361.28790	814.29645	208.40619	-639.25983	907.89258	338.10193	-682.08441	410.90649	115.90741	-307.81555	441.40024	185.25856	-912.29053	273.37164	603.63904	-237.79436	128.73878	163.25932	
481	4.800	-338.22220	1245.54968	-32.49102	-472.93732	1487.04480	102.21336	-509.47568	1370.99744	-18.95519	-306.76266	1334.95898	85.93729	-654.34729	1196.38489	16.74816	-329.67572	1226.65649	285.43823	-429.37836	1126.04761	75.84729	-561.84204	1299.47656	230.24594	-670.73932	913.44739	-47.52988	-323.15109	994.72583	415.70731	-487.90933	816.53339	-172.57234	-254.14627	731.75165	416.85156	-693.88824	905.90936	-28.79018	-354.37216	813.11938	202.59010	-629.60229	908.17596	336.03937	-678.12891	409.83154	113.90909	-301.13995	441.47821	180.23079				-234.01140	124.66672	160.49251	
482	4.810	-331.72455	1244.29309	-35.76040	-464.64191	1486.69800	97.72661	-502.06357	1370.10498	-22.67915	-299.07629	1334.14124	80.75100	-647.64771	1197.09375	14.33764	-321.23633	1225.06860	280.62143	-422.02078	1125.31689	70.79832	-552.59778	1299.85547	227.11736	-664.07135	914.13568	-50.37939	-312.64111	993.72900	411.39108	-482.46246	816.62506	-175.85887	-243.16949	730.90936	414.72522	-686.73584	905.74298	-30.44189	-347.62064	812.08557	198.51523	-621.25293	909.42493	334.68900	-674.13458	408.33530	110.90268	-294.37100	441.51300	174.68025				-231.82153	122.75227	158.03804	
483	4.820	-324.22266	1243.35742	-41.07365	-455.62067	1485.96143	93.59370	-494.50140	1368.99048	-27.40327	-290.45215	1333.20654	75.14671	-639.89081	1196.77283	12.40216	-311.97086	1223.48633	270.19260	-414.14633	1124.75159	67.71909	-542.93085	1299.94067	223.74107	-657.85529	913.97485	-51.04209	-301.97369	993.32013	406.42288	-477.22006	817.25000	-180.79488	-233.61302	730.31342	409.37631	-681.34753	906.36108	-32.86481	-340.46823	811.52203	194.69640	-613.48627	911.30017	333.84592	-669.14209	407.83578	107.71029	-288.12320	442.11963	169.73605				-230.55533	120.90356	155.54448	
484	4.830	-316.03619	1242.84851	-47.34008	-446.78183	1485.91541	89.38464	-486.84995	1368.97400	-30.65434	-281.91415	1332.34351	69.29587	-633.00519	1197.96069	8.61882	-301.78275	1222.81641	266.79721	-407.32117	1123.69788	63.47121	-533.91022	1300.81628	220.32213	-651.42828	914.80481	-53.17339	-291.37372	993.54028	400.82144	-471.74719	818.13239	-184.67220	-224.22394	729.60742	404.31766	-676.82526	907.37823	-35.32691	-334.37784	811.16504	190.43739	-604.63721	912.92065	332.14279	-663.76959	408.34698	103.70721	-281.46783	444.88406	162.31555				-229.69118	119.43449	153.75742	
485	4.840	-309.98465	1241.55530	-51.02528	-437.97211	1485.55737	85.14883	-479.10114	1368.72961	-34.57988	-273.46671	1331.60486	64.59457	-625.75354	1198.86157	6.34893	-292.91574	1220.76636	254.85275	-400.22189	1123.74316	59.83487	-525.18640	1301.78821	216.57147	-645.27905	915.15997	-54.77325	-280.43134	993.42859	395.01788	-466.47028	818.19427	-187.64926	-212.82077	730.25635	399.22418	-670.25690	907.17548	-37.43385	-328.04022	810.71600	187.99014	-596.31000	914.16760	330.16904	-658.08887	407.12543	100.21053	-274.47659	447.92059	156.10506				-228.98071	118.48206	153.10448	
486	4.850	-302.69928	1240.94165	-55.82780	-429.29016	1484.71912	81.00243	-471.84366	1367.86584	-39.24557	-266.29523	1330.55566	59.05115	-618.34131	1200.00903	2.62963	-283.33383	1220.41663	248.20258	-393.17926	1123.20471	56.30425	-516.26147	1302.11047	212.68854	-638.77917	916.00763	-56.23299	-270.80655	993.06696	389.64401	-461.10953	819.18665	-192.15459	-202.73071	730.24823	393.86417	-663.85876	908.11108	-38.85408	-322.09995	810.77100	186.28506	-587.75513	915.50909	327.66446	-652.68457	407.75012	96.39178	-267.69107	451.07098	150.29662	-832.59595	103.20576	239.92339	-227.89972	118.02125	152.45560	
487	4.860	-295.72461	1239.78882	-60.58521	-421.13953	1484.99658	77.01524	-464.07193	1367.72217	-42.34609	-257.78912	1330.13184	54.09374	-611.10431	1201.07471	-0.91918	-273.76651	1223.98425	250.07326	-386.68768	1122.58020	52.25185	-507.80002	1302.72644	209.06889	-632.51245	916.26215	-57.14680	-260.42160	993.17334	383.13031	-455.65314	820.19293	-195.90717	-192.45451	730.57788	388.80618	-657.94305	908.05078	-40.00997	-317.57571	809.62958	183.93080	-581.52124	918.32581	325.93106	-646.48578	408.78766	92.19492	-260.56662	454.76563	144.15550	-829.86060	106.27361	240.15244	-226.70514	117.21363	151.59230	
488	4.870	-288.47623	1239.16589	-65.91976	-412.85825	1483.95886	72.49779	-456.65192	1367.01941	-45.66646	-250.33777	1328.61536	49.39922	-603.89990	1202.36731	-4.34683	-265.70267	1222.40759	244.41362	-379.95306	1122.29663	47.84075	-500.17926	1303.64868	205.45033	-625.87878	917.53693	-59.32257	-249.78505	994.01556	377.80307	-450.24277	820.38342	-198.61810	-181.63287	732.11578	384.10284	-652.18207	907.85089	-41.06678	-310.26572	811.05145	181.51236	-574.16034	919.90570	323.85080	-640.66406	408.53174	88.90403	-254.27708	456.35541	139.26567	-829.20111	109.27404	237.71237	-225.09045	116.11819	151.68771	
489	4.880	-281.67175	1238.34326	-70.14727	-404.93793	1483.61389	68.16541	-449.65683	1366.86877	-50.48506	-243.76065	1327.02246	45.56890	-596.53119	1203.23877	-8.19666	-258.35196	1222.42395	239.01833	-373.64926	1122.02844	44.70753	-492.53268	1303.76050	202.13734	-619.48651	917.86926	-60.68762	-240.60542	994.02216	371.44321	-444.47211	821.57135	-202.18979	-171.02477	732.84607	377.48590	-646.54376	908.82397	-40.67485	-303.75134	810.52838	179.06477	-567.65118	921.31763	321.39981	-633.96814	409.51263	86.76968	-248.54982	458.84396	135.24324	-826.70245	112.08904	235.35443	-224.13783	115.85583	151.60434	
490	4.890	-275.82602	1236.84631	-74.13589	-397.10382	1483.38330	64.48797	-442.69873	1366.68665	-54.78930	-233.92833	1327.13306	42.25599	-589.27643	1203.93372	-11.07637	-251.21013	1222.03284	229.22603	-367.09265	1121.26233	40.37959	-484.90607	1304.41663	198.32448	-613.02954	918.96411	-63.87091	-230.99849	994.10449	366.30261	-438.94827	823.09961	-205.34390	-159.84587	733.08966	371.05368	-642.38196	908.84766	-42.14034	-297.43430	811.17798	175.48506	-561.87952	923.23615	319.24820	-629.27380	411.26718	83.73766	-242.73708	459.71072	131.91487	-824.25879	113.72943	230.70628	-222.97064	114.94103	151.64066	
491	4.900	-269.44946	1236.48767	-77.88160	-389.71317	1483.07910	59.98911	-435.46866	1365.97522	-58.43526	-227.55882	1326.08154	38.34005	-583.22522	1205.09753	-15.27213	-243.12039	1223.12366	225.95352	-362.10150	1120.64929	37.57069	-477.27866	1305.32373	194.51503	-606.89563	919.73004	-66.76571	-221.48915	994.46893	360.21198	-432.94751	823.42389	-208.85257	-149.19371	734.40790	364.40210	-635.97559	908.58295	-42.54486	-291.47470	810.92535	172.43556	-554.33215	924.38965	316.37711	-624.19366	413.21002	80.59071	-236.76132	460.44229	129.77063				-222.27034	113.62460	150.99689	
492	4.910	-263.56668	1235.42126	-82.58188	-382.71158	1483.00928	56.19634	-428.99152	1366.70508	-62.09453	-220.42157	1325.07458	33.50433	-576.36462	1206.23938	-18.01111	-235.41447	1222.63049	222.47591	-356.66013	1120.39490	33.63367	-470.79425	1305.62500	191.44719	-600.89606	920.30457	-69.14993	-211.71858	994.89911	354.10675	-427.67349	824.84821	-212.59990	-138.55339	734.61786	357.58765	-520.53253	826.14630	26.03397	-285.44644	810.27966	170.74344	-548.07281	925.31421	314.61838	-619.97076	414.74088	78.09196	-232.65532	459.89474	126.77787	-830.82123	110.81383	251.74327	-221.25574	112.40926	150.16322	
493	4.920	-257.76492	1233.80688	-85.68848	-375.36670	1482.51294	51.65712	-422.73526	1365.70654	-66.55607	-214.24577	1324.02087	28.79937	-570.24744	1206.42041	-21.56727	-229.53476	1222.38831	213.26227	-351.59180	1119.59741	30.22438	-463.94370	1306.65015	188.15086	-594.81506	921.60425	-72.26873	-202.83521	994.82861	348.60040	-421.14102	825.30695	-215.69983	-128.17612	734.18896	350.08212	-516.47937	826.21399	23.91619	-279.94836	809.85999	166.60617	-541.15289	926.18988	312.80676	-616.78064	416.52844	76.29476	-228.69450	459.27689	125.39310	-829.47400	112.30518	250.51074	-220.42421	111.31321	149.20094	
